<svg width="25" height="25" viewBox="0 0 25 25" fill="none" xmlns="http://www.w3.org/2000/svg">
<g clip-path="url(#clip0_2_104)">
<path d="M12.4898 0C15.9479 0 19.0602 1.40358 21.3181 3.66151C23.5761 5.91945 24.9797 9.05207 24.9797 12.4898C24.9797 15.9479 23.5761 19.0602 21.3181 21.3181C19.0602 23.5761 15.9276 24.9797 12.4898 24.9797C9.05207 24.9797 5.91945 23.5761 3.66151 21.3181C1.40358 19.0806 0 15.9479 0 12.4898C0 9.03173 1.40358 5.91945 3.66151 3.66151C5.91945 1.40358 9.05207 0 12.4898 0ZM8.40114 11.0456C8.17738 11.0456 7.9943 11.1066 7.8926 11.188C7.83157 11.2286 7.77054 11.2897 7.7502 11.3507C7.70952 11.4321 7.68918 11.5134 7.70952 11.6355C7.70952 11.9406 7.87225 12.3474 8.19772 12.8153L9.21481 14.4426C9.62164 15.0936 10.0488 15.7648 10.598 16.2531C11.1066 16.7209 11.7372 17.0464 12.5509 17.0464C13.4459 17.0464 14.0968 16.7209 14.6257 16.2124C15.1749 15.7038 15.6225 14.9919 16.0496 14.2799L17.2091 12.3881C17.4329 11.8999 17.4939 11.5745 17.4532 11.371C17.4329 11.249 17.2905 11.2083 17.0871 11.188C17.0464 11.188 16.9854 11.188 16.9447 11.188C16.8836 11.188 16.843 11.188 16.7819 11.188C16.7413 11.188 16.7209 11.188 16.7006 11.188C16.5989 11.188 16.4972 11.188 16.3751 11.1676L16.7616 9.41823C13.8324 9.88609 11.6355 7.70952 8.54353 8.99105L8.74695 11.0659C8.6249 11.0659 8.50285 11.0659 8.40114 11.0456ZM3.82425 19.467C5.26851 18.9585 7.81123 18.6941 8.99105 17.9007C9.19447 17.6363 9.41823 17.3108 9.62164 17.026C9.74369 16.843 9.8454 16.6802 9.94711 16.5582C9.96745 16.5378 9.9878 16.5175 10.0081 16.4972C9.51993 15.9886 9.1131 15.3784 8.72661 14.7681L7.70952 13.1408C7.32303 12.5712 7.11961 12.0627 7.11961 11.6558C7.11961 11.4524 7.13995 11.2693 7.22132 11.1269C7.30268 10.9642 7.42474 10.8218 7.56713 10.7201C7.64849 10.6794 7.72986 10.6184 7.81123 10.598C7.7502 9.72335 7.72986 8.60456 7.77055 7.66884C7.79089 7.44508 7.83157 7.22132 7.8926 6.99756C8.15704 6.06184 8.80797 5.30919 9.62164 4.80065C9.90643 4.61758 10.2116 4.47518 10.5574 4.35313C11.1473 4.12937 10.8625 3.23434 11.5134 3.21399C13.0391 3.17331 15.5411 4.47518 16.5175 5.53295C17.0871 6.14321 17.4532 6.95688 17.5142 8.03499L17.4532 10.6998C17.738 10.7811 17.9211 10.9642 18.0024 11.249C18.0838 11.5745 18.0024 12.022 17.7177 12.6526C17.7177 12.6729 17.6973 12.6729 17.6973 12.6932L16.5378 14.6054C16.0903 15.3377 15.6225 16.0903 15.0122 16.6599L14.9919 16.6802C15.0732 16.7819 15.1546 16.904 15.236 17.026C15.3987 17.2498 15.5614 17.5142 15.7445 17.7583C16.8226 18.6737 19.6705 18.9585 21.1758 19.5077C22.7217 17.5956 23.6371 15.1546 23.6371 12.5102C23.6371 9.43857 22.3963 6.65175 20.3824 4.63792C18.3686 2.62408 15.5818 1.38324 12.5102 1.38324C9.43857 1.38324 6.65175 2.62408 4.63792 4.63792C2.62408 6.65175 1.38324 9.43857 1.38324 12.5102C1.3629 15.1343 2.27827 17.5549 3.82425 19.467ZM15.6631 18.4093C15.3784 18.0838 15.0936 17.6566 14.8291 17.2905C14.7478 17.1888 14.6867 17.0667 14.6054 16.9854C14.0561 17.3922 13.3849 17.6566 12.5102 17.6566C11.5948 17.6566 10.8828 17.3312 10.2929 16.8226C10.2929 16.8226 10.2929 16.843 10.2726 16.843C10.1709 16.9854 10.0692 17.1277 9.94711 17.3108C9.72335 17.6363 9.47925 17.9821 9.25549 18.2872C9.27583 20.3417 14.463 21.5622 15.6631 18.4093Z" fill="#A7A3B3"/>
</g>
<defs>
<clipPath id="clip0_2_104">
<rect width="25" height="25" fill="white"/>
</clipPath>
</defs>
</svg>
