<svg width="32" height="25" viewBox="0 0 32 25" fill="none" xmlns="http://www.w3.org/2000/svg">
<g clip-path="url(#clip0_2_94)">
<path d="M0.613149 0H5.33543V1.2263H1.2263V4.43116H0V0.613149C0 0.27566 0.27566 0 0.613149 0ZM4.61665 4.18127H6.74464V20.8187H4.61665V4.18127ZM17.8818 4.18127H19.4018V20.8187H17.8818V4.18127ZM14.9371 4.18127H16.0758V20.8187H14.9371V4.18127ZM8.5506 4.18127H9.19724V20.8187H8.5506V4.18127ZM25.1417 4.18127H27.0404V20.8187H25.1417V4.18127ZM21.2078 4.18127H23.3357V20.8187H21.2078V4.18127ZM11.0032 4.18127H13.1312V20.8187H11.0032V4.18127ZM1.2263 20.5688V23.7737H5.33543V25H0.613149C0.27566 25 0 24.7269 0 24.3869V20.5688H1.2263ZM26.6385 0H31.0439C31.3814 0 31.6571 0.27566 31.6571 0.613149V4.43116H30.4308V1.2263H26.6385V0ZM31.6571 20.5688V24.3869C31.6571 24.7243 31.3814 25 31.0439 25H26.6385V23.7737H30.4308V20.5688H31.6571Z" fill="#A7A3B3"/>
</g>
<defs>
<clipPath id="clip0_2_94">
<rect width="31.6571" height="25" fill="white"/>
</clipPath>
</defs>
</svg>
