<svg width="25" height="25" viewBox="0 0 25 25" fill="none" xmlns="http://www.w3.org/2000/svg">
<g clip-path="url(#clip0_2_89)">
<path d="M15.454 13.6678V4.35383L11.1144 3.77603L10.9659 8.09936L9.37693 7.017L7.78798 7.91422L8.11554 3.39355L5.68227 3.08227V12.559L15.454 13.6678Z" fill="#2F50C1"/>
<path d="M19.6227 24.2696V14.9556L15.2831 14.3778L15.1346 18.7012L13.5456 17.6188L11.9567 18.516L12.2842 13.9954L10.0341 13.7756V23.2524L19.6227 24.2696Z" fill="#2F50C1"/>
<path d="M6.11766 13.3036L5.97321 17.5212L4.38426 16.4388L2.79531 17.336L3.12286 12.8153L0.872701 12.5061V21.9828L9.16127 22.9248V13.6414L6.11766 13.3036Z" fill="#2F50C1"/>
<path d="M20.1171 11.9873L16.9188 13.8957L20.0947 14.3005L23.1363 12.384L20.1171 11.9873Z" fill="#2F50C1"/>
<path d="M20.4975 15.0431V24.0478L23.9257 22.0032L23.8585 12.9252L20.4975 15.0431Z" fill="#2F50C1"/>
<path d="M4.99461 11.32V10.437L1.60105 11.9283L3.54808 12.1765L4.99461 11.32Z" fill="#2F50C1"/>
<path d="M16.3288 4.44132V13.446L19.3826 11.6231L19.7549 11.3078L19.6898 2.3234L16.3288 4.44132Z" fill="#2F50C1"/>
<path d="M14.923 1.25121L11.5864 3.14534L15.926 3.69872L18.9676 1.78222L14.923 1.25121Z" fill="#2F50C1"/>
<path d="M8.54279 2.75471L11.7776 0.836174L10.7116 0.695793L6.59576 2.50447L8.54279 2.75471Z" fill="#2F50C1"/>
</g>
<defs>
<clipPath id="clip0_2_89">
<rect width="24.6134" height="25" fill="white"/>
</clipPath>
</defs>
</svg>
