<svg width="93" height="16" viewBox="0 0 93 16" fill="none" xmlns="http://www.w3.org/2000/svg">
<path d="M16.0506 0C16.0506 1.47157 15.4531 2.80459 14.4872 3.77066C13.5433 4.71426 12.2438 5.30962 10.8074 5.33208H0L5.35755 0H16.0506Z" fill="#2F50C1"/>
<path d="M16.0665 10.6267L10.6676 16H0.241525V15.9887L0.238342 15.9869V15.9682C0.238342 15.7828 0.279718 14.4872 1.05819 13.2441C1.45529 12.6113 2.03361 11.9916 2.90438 11.5123C3.70195 11.0742 5.38377 10.666 6.76846 10.6735L6.72727 12.4428L8.81798 10.4451L6.81939 8.35383L6.81302 8.64028L6.77801 10.1437C6.34178 10.1287 5.67041 10.1362 4.90635 10.2859L0.473493 5.86938H11.2873L16.0665 10.6267Z" fill="#2F50C1"/>
<path d="M26.9428 6.86959H28.3053C29.6359 6.86959 30.6179 7.14849 31.2511 7.70373C31.884 8.25897 32.2007 9.04328 32.2007 10.0567C32.2007 11.07 31.8703 11.8469 31.2097 12.3822C30.5489 12.92 29.5809 13.1889 28.3053 13.1889H23.3502C23.139 13.1889 23.0382 13.0819 23.0474 12.8727V11.2468C23.0474 11.0377 23.1482 10.9306 23.3502 10.9306H28.3053C29.122 10.9306 29.5303 10.6418 29.5303 10.0641C29.5303 9.43918 29.122 9.12794 28.3053 9.12794H26.9428C25.612 9.12794 24.6302 8.85157 23.997 8.29383C23.3639 7.73859 23.0474 6.95425 23.0474 5.94087C23.0474 4.92749 23.3775 4.15314 24.0384 3.61532C24.6992 3.07751 25.667 2.8111 26.9428 2.8111H31.6089C31.8198 2.8111 31.9253 2.91568 31.9253 3.12732V4.76565C31.9253 4.9748 31.8198 5.07688 31.6089 5.06692H26.9428C26.1259 5.06692 25.7175 5.36073 25.7175 5.94835C25.7175 6.56335 26.1259 6.86959 26.9428 6.86959Z" fill="#2F50C1"/>
<path d="M40.8999 2.8111H42.8268C43.0379 2.8111 43.1385 2.91568 43.1298 3.12732V12.8727C43.1298 13.0819 43.0287 13.1889 42.8268 13.1889H40.8999C40.6885 13.1889 40.5876 13.0819 40.5971 12.8727V9.12794H36.6466V12.8727C36.6466 13.0819 36.5455 13.1889 36.3439 13.1889H34.4167C34.2055 13.1889 34.1047 13.0819 34.1142 12.8727V3.12732C34.1142 2.91568 34.215 2.8111 34.4167 2.8111H36.3439C36.5548 2.8111 36.6556 2.91568 36.6466 3.12732V6.86959H40.5971V3.12732C40.5876 2.91568 40.6885 2.8111 40.8999 2.8111Z" fill="#2F50C1"/>
<path d="M45.5383 2.8111H47.4654C47.6763 2.8111 47.7772 2.91568 47.7682 3.12732V12.8727C47.7682 13.0819 47.6671 13.1889 47.4654 13.1889H45.5383C45.3271 13.1889 45.2263 13.0819 45.2355 12.8727V3.12732C45.2263 2.91568 45.3271 2.8111 45.5383 2.8111Z" fill="#2F50C1"/>
<path d="M52.4066 5.06692V7.86056H55.5449C56.27 7.86056 56.6325 7.39496 56.6325 6.46374C56.6325 5.53252 56.27 5.06692 55.5449 5.06692H52.4066ZM59.1786 6.56085C59.1786 7.52942 58.8714 8.36354 58.2566 9.06569C57.6419 9.76784 56.7378 10.1189 55.5449 10.1189H52.4066V12.8727C52.4066 13.0819 52.3058 13.1889 52.1039 13.1889H50.1769C49.9658 13.1889 49.865 13.0819 49.8742 12.8727V3.12732C49.8742 2.91568 49.975 2.8111 50.1769 2.8111H55.5449C56.7012 2.8111 57.5961 3.19205 58.2292 3.95893C58.8622 4.72582 59.1786 5.59228 59.1786 6.56085Z" fill="#2F50C1"/>
<path d="M63.5145 5.06692V7.86056H66.653C67.3778 7.86056 67.7404 7.39496 67.7404 6.46374C67.7404 5.53252 67.3778 5.06692 66.653 5.06692H63.5145ZM70.2865 6.56085C70.2865 7.52942 69.9793 8.36354 69.3643 9.06569C68.7498 9.76784 67.8457 10.1189 66.653 10.1189H63.5145V12.8727C63.5145 13.0819 63.4134 13.1889 63.2118 13.1889H61.2848C61.0737 13.1889 60.9728 13.0819 60.9821 12.8727V3.12732C60.9821 2.91568 61.0831 2.8111 61.2848 2.8111H66.653C67.8091 2.8111 68.7039 3.19205 69.3371 3.95893C69.9701 4.72582 70.2865 5.59228 70.2865 6.56085Z" fill="#2F50C1"/>
<path d="M74.6226 9.12794V10.9306H80.6238C80.8349 10.9306 80.9405 11.0377 80.9405 11.2468V12.8727C80.9405 13.0819 80.8349 13.1889 80.6238 13.1889H72.3925C72.1816 13.1889 72.0807 13.0819 72.0899 12.8727V3.12732C72.0899 2.91568 72.1908 2.8111 72.3925 2.8111H80.4861C80.697 2.8111 80.8028 2.91568 80.8028 3.12732V4.76565C80.8028 4.9748 80.697 5.07688 80.4861 5.06692H74.6226V6.86959H80.0593C80.2705 6.86959 80.376 6.97667 80.376 7.18831V8.82418C80.376 9.03582 80.2705 9.1379 80.0593 9.12794H74.6226Z" fill="#2F50C1"/>
<path d="M90.0251 7.95767C90.3735 8.05976 90.6809 8.19671 90.9471 8.371C91.828 8.89388 92.273 10.2832 92.2822 12.5416V12.8727C92.273 13.0819 92.1672 13.1889 91.9657 13.1889H90.0525C89.8414 13.179 89.736 13.0744 89.736 12.8727V12.5416C89.736 11.0725 89.5109 10.1363 89.0615 9.73296C88.6761 9.38438 88.153 9.18768 87.4921 9.14286C86.8226 9.18768 86.2948 9.38438 85.9093 9.73296C85.4597 10.1363 85.2351 11.0725 85.2351 12.5416V12.8727C85.2351 13.0744 85.1293 13.179 84.9184 13.1889H83.0051C82.8032 13.1889 82.6974 13.0819 82.6887 12.8727V12.5416C82.6887 10.2832 83.1334 8.89388 84.0235 8.371C84.2991 8.20667 84.6061 8.06723 84.9457 7.95767C83.6336 7.23312 82.9775 5.73173 82.9775 3.45597V3.12732C82.9775 2.91568 83.0783 2.8111 83.2805 2.8111H85.2072C85.4183 2.8111 85.5192 2.91568 85.5102 3.12732V3.45597C85.5102 5.01713 85.6569 5.9633 85.9507 6.29943C86.2442 6.63307 86.7581 6.81981 87.4921 6.85716C88.2262 6.81981 88.7381 6.63307 89.0272 6.29943C89.316 5.9633 89.4607 5.01713 89.4607 3.45597V3.12732C89.4607 2.91568 89.5618 2.8111 89.7632 2.8111H91.6904C91.9012 2.8111 92.0021 2.91568 91.9931 3.12732V3.45597C91.9931 5.73173 91.3368 7.23312 90.0251 7.95767Z" fill="#2F50C1"/>
</svg>
