<svg width="1000" height="996" viewBox="0 0 1000 996" fill="none" xmlns="http://www.w3.org/2000/svg">
<path d="M999.009 0C999.009 91.5923 961.824 174.562 901.707 234.691C842.952 293.422 762.069 330.478 672.668 331.876H0L333.461 0H999.009Z" fill="#2F50C1"/>
<path d="M1000 661.423L663.963 995.863H15.0327V995.164L14.8346 995.047V993.882C14.8346 982.346 17.4099 901.707 65.8629 824.331C90.5789 784.944 126.575 746.373 180.773 716.541C230.414 689.273 335.093 663.87 421.278 664.336L418.715 774.456L548.843 650.12L424.448 519.956L424.052 537.785L421.873 631.357C394.721 630.425 352.934 630.891 305.378 640.214L29.4707 365.321H702.534L1000 661.423Z" fill="#2F50C1"/>
</svg>
