<svg width="37" height="36" viewBox="0 0 37 36" fill="none" xmlns="http://www.w3.org/2000/svg">
<path d="M36.1138 0C36.1138 3.31102 34.7695 6.31033 32.5963 8.48398C30.4724 10.6071 27.5485 11.9466 24.3166 11.9972H0L12.0545 0H36.1138Z" fill="#2F50C1"/>
<path d="M36.1496 23.9102L24.002 36H0.543421V35.9748L0.536261 35.9705V35.9284C0.536261 35.5114 0.629356 32.5963 2.38091 29.7992C3.27438 28.3754 4.57562 26.9811 6.53485 25.9027C8.32938 24.9169 12.1135 23.9986 15.229 24.0155L15.1364 27.9963L19.8405 23.5016L15.3436 18.7962L15.3293 19.4407L15.2505 22.8233C14.269 22.7896 12.7584 22.8064 11.0393 23.1434L1.06535 13.2062H25.3963L36.1496 23.9102Z" fill="#2F50C1"/>
</svg>
