<svg width="31" height="25" viewBox="0 0 31 25" fill="none" xmlns="http://www.w3.org/2000/svg">
<g clip-path="url(#clip0_2_99)">
<path fill-rule="evenodd" clip-rule="evenodd" d="M22.3576 8.22066H26.8973V7.53232C26.1867 4.88503 24.3807 4.9023 22.1479 4.9245C21.7803 4.92944 21.4472 4.93191 21.4275 4.93191H4.45821C4.06839 4.93191 3.75259 4.61611 3.75259 4.22629C3.75259 3.83647 4.06839 3.52067 4.45821 3.52067H21.4275C21.9284 3.52067 22.0344 3.52067 22.1356 3.51821C24.0452 3.49847 25.713 3.4812 26.8973 4.59884V4.27563C26.8973 3.48613 26.5741 2.77065 26.0535 2.25007C25.5329 1.7295 24.815 1.4063 24.0279 1.4063H4.2781C3.4886 1.4063 2.77312 1.7295 2.25254 2.25007C1.73196 2.77065 1.40876 3.4886 1.40876 4.27563V20.717C1.40876 21.5065 1.73196 22.2219 2.25254 22.7425C2.77312 23.2631 3.49107 23.5863 4.2781 23.5863H24.0255C24.815 23.5863 25.5304 23.2631 26.051 22.7425C26.5716 22.2219 26.8948 21.504 26.8948 20.717V18.383H22.3552C20.9859 18.383 19.74 17.823 18.8394 16.9224C17.9389 16.0219 17.3789 14.776 17.3789 13.4067V13.192C17.3789 11.8228 17.9389 10.5768 18.8394 9.6763C19.7424 8.78072 20.9859 8.22066 22.3576 8.22066ZM28.306 8.2478C28.8167 8.32429 29.2732 8.56607 29.621 8.91641C30.0503 9.3457 30.3143 9.93783 30.3143 10.5892V15.9183C30.3143 16.5992 30.038 17.216 29.5914 17.6626C29.2485 18.0055 28.8019 18.2498 28.306 18.3435V20.7194C28.306 21.8963 27.8249 22.967 27.0502 23.7417C26.2755 24.5164 25.2048 24.9975 24.0279 24.9975H4.2781C3.10125 24.9975 2.03049 24.5164 1.2558 23.7417C0.481101 22.9695 0 21.8987 0 20.7219V4.2781C0 3.10125 0.481101 2.03049 1.2558 1.2558C2.03049 0.481101 3.10125 0 4.2781 0H24.0255C25.2023 0 26.2731 0.481101 27.0478 1.2558C27.8225 2.03049 28.3036 3.10125 28.3036 4.2781V8.2478H28.306ZM21.7458 11.3762C22.745 11.3762 23.5542 12.1854 23.5542 13.1846C23.5542 14.1839 22.745 14.9931 21.7458 14.9931C20.7466 14.9931 19.9373 14.1839 19.9373 13.1846C19.9373 12.1854 20.7466 11.3762 21.7458 11.3762Z" fill="#A7A3B3"/>
</g>
<defs>
<clipPath id="clip0_2_99">
<rect width="30.3168" height="25" fill="white"/>
</clipPath>
</defs>
</svg>
